<svg width="75" height="75" viewBox="0 0 75 75" fill="none" xmlns="http://www.w3.org/2000/svg">
<circle cx="37.5" cy="37.5" r="37.5" fill="url(#paint0_linear)"/>
<path d="M50.4376 21.8467C50.1933 21.6315 49.8736 21.5 49.5225 21.5C48.7566 21.5 48.1357 22.1208 48.1357 22.8867C48.1357 23.6526 48.7566 24.2734 49.5225 24.2734C49.8736 24.2734 50.1933 24.1419 50.4376 23.9268H52.9199V31.9004C52.9199 36.8705 48.8765 40.9141 43.9062 40.9141C38.936 40.9141 34.8926 36.8705 34.8926 31.9004V23.9268H37.4443C37.6885 24.1419 38.0083 24.2734 38.3594 24.2734C39.1253 24.2734 39.7461 23.6526 39.7461 22.8867C39.7461 22.1208 39.1253 21.5 38.3594 21.5C38.0083 21.5 37.6885 21.6315 37.4443 21.8467H32.8125V31.9004C32.8125 37.6657 37.2334 42.4171 42.863 42.9447C42.7418 47.4658 39.0264 51.1064 34.4766 51.1064C29.933 51.1064 26.2218 47.4759 26.0908 42.9636C28.6519 42.4737 30.5938 40.2183 30.5938 37.5166C30.5938 34.4581 28.1054 31.9697 25.0469 31.9697C21.9883 31.9697 19.5 34.4581 19.5 37.5166C19.5 40.2207 21.4455 42.4777 24.01 42.9648C24.1422 48.6237 28.7864 53.1865 34.4766 53.1865C40.1732 53.1865 44.8213 48.6132 44.9434 42.9453C50.576 42.4205 55 37.6678 55 31.9004V21.8467H50.4376ZM25.0469 38.9033C24.281 38.9033 23.6602 38.2825 23.6602 37.5166C23.6602 36.7507 24.281 36.1299 25.0469 36.1299C25.8128 36.1299 26.4336 36.7507 26.4336 37.5166C26.4336 38.2825 25.8128 38.9033 25.0469 38.9033Z" fill="#47435A"/>
<defs>
<linearGradient id="paint0_linear" x1="15" y1="7" x2="57.75" y2="66.75" gradientUnits="userSpaceOnUse">
<stop stop-color="#F0FEED"/>
<stop offset="1" stop-color="#D6D6FF"/>
</linearGradient>
</defs>
</svg>
